<svg width="24" height="24" viewBox="0 0 24 24" fill="none" xmlns="http://www.w3.org/2000/svg">
<path d="M12.5945 5.20819C12.4023 4.59727 11.5976 4.59727 11.4054 5.20819C11.1268 6.09399 10.3176 6.71631 9.38001 6.71631C9.08994 6.71631 8.87348 6.89471 8.78547 7.17451C8.69692 7.45601 8.76925 7.75176 9.02059 7.9404C9.76393 8.49829 10.0637 9.47391 9.7862 10.3561C9.68376 10.6818 9.80636 10.9606 10.0213 11.122C10.2328 11.2807 10.4976 11.304 10.7402 11.122C11.4897 10.5594 12.5103 10.5594 13.2598 11.122C13.5024 11.304 13.7672 11.2807 13.9786 11.122C14.1936 10.9606 14.3162 10.6818 14.2137 10.3561C13.9363 9.47391 14.236 8.49829 14.9794 7.9404C15.2307 7.75176 15.303 7.45601 15.2145 7.17451C15.1265 6.89471 14.91 6.71631 14.6199 6.71631C13.6824 6.71631 12.8731 6.09399 12.5945 5.20819Z" fill="#CD7F32"/>
<path fill-rule="evenodd" clip-rule="evenodd" d="M3.24996 9C3.24996 4.16751 7.16747 0.25 12 0.25C16.8325 0.25 20.75 4.16751 20.75 9C20.75 9.42706 20.7193 9.84715 20.6601 10.2581C20.5334 10.5946 20.3877 10.9218 20.2243 11.2382C18.9125 13.7781 16.4595 15.6312 13.5471 16.1213C13.0445 16.2059 12.5277 16.25 12 16.25C11.383 16.25 10.7808 16.1897 10.1987 16.0749C7.34644 15.5122 4.96252 13.6362 3.70636 11.1011C3.57075 10.8274 3.44828 10.5461 3.33979 10.2578C3.28059 9.84693 3.24996 9.42694 3.24996 9ZM9.97455 4.75812C10.607 2.74729 13.3929 2.74729 14.0254 4.75812C14.1156 5.0448 14.364 5.21631 14.6199 5.21631C16.729 5.21631 17.4921 7.93003 15.8797 9.1401C15.6576 9.30685 15.5533 9.61567 15.6446 9.90599C15.9545 10.8912 15.557 11.8128 14.879 12.3217C14.1975 12.8332 13.1963 12.9498 12.3594 12.3217C12.1434 12.1595 11.8566 12.1595 11.6406 12.3217C10.8037 12.9498 9.80249 12.8332 9.12093 12.3217C8.44289 11.8128 8.04543 10.8912 8.35532 9.90599C8.44664 9.61567 8.34237 9.30685 8.1202 9.1401C6.50787 7.93003 7.27095 5.21631 9.38001 5.21631C9.63591 5.21631 9.88437 5.0448 9.97455 4.75812Z" fill="#CD7F32"/>
<path d="M3.26358 13.2652C3.17493 13.4153 3.08155 13.5771 2.98098 13.7513L1.155 16.914C0.929535 17.3044 0.721054 17.6654 0.600856 17.9642C0.483122 18.2569 0.334849 18.7645 0.662511 19.2343C0.994323 19.71 1.52695 19.7382 1.8426 19.7225C2.1622 19.7066 2.56848 19.6267 3.00491 19.5407L3.79618 19.3851C4.23484 19.2988 4.4951 19.2491 4.6882 19.2358C4.7764 19.2297 4.82375 19.2338 4.84705 19.2377C4.85775 19.2395 4.86407 19.2416 4.86407 19.2416L4.86701 19.243L4.86966 19.2449C4.86966 19.2449 4.87466 19.2493 4.88157 19.2576C4.89661 19.2759 4.92382 19.3148 4.96267 19.3942C5.04772 19.5681 5.13475 19.8184 5.27936 20.2414L5.54018 21.0044C5.684 21.4254 5.81789 21.8172 5.96393 22.102C6.10817 22.3832 6.39891 22.8304 6.97682 22.8798C7.54749 22.9287 7.91291 22.5465 8.10753 22.2982C8.30622 22.0447 8.51461 21.6836 8.73997 21.2932L10.5292 18.1941C10.6357 18.0096 10.7331 17.8409 10.8209 17.686C10.5127 17.6524 10.2084 17.6057 9.9084 17.5465C7.18108 17.0085 4.82602 15.4403 3.26358 13.2652Z" fill="#CD7F32"/>
<path d="M20.5814 13.4757C20.6268 13.554 20.6735 13.635 20.7219 13.7188L22.5666 16.9141C22.7921 17.3044 23.0006 17.6654 23.1208 17.9642C23.2385 18.2569 23.3868 18.7645 23.0591 19.2343C22.7273 19.71 22.1947 19.7382 21.879 19.7225C21.5594 19.7066 21.1531 19.6267 20.7167 19.5407L19.9254 19.3851C19.4868 19.2988 19.2265 19.2491 19.0334 19.2358C18.9452 19.2297 18.8979 19.2338 18.8746 19.2377C18.8639 19.2395 18.8575 19.2416 18.8575 19.2416L18.8546 19.243L18.8532 19.2439L18.8519 19.2449C18.8519 19.2449 18.8469 19.2493 18.84 19.2576C18.825 19.2759 18.7978 19.3148 18.7589 19.3942C18.6739 19.5681 18.5869 19.8184 18.4422 20.2414L18.1814 21.0044C18.0376 21.4254 17.9037 21.8173 17.7577 22.102C17.6134 22.3832 17.3227 22.8304 16.7448 22.8798C16.1741 22.9287 15.8087 22.5465 15.6141 22.2982C15.4154 22.0447 15.207 21.6837 14.9816 21.2932L13.1923 18.194C13.0917 18.0196 12.9992 17.8594 12.9152 17.7115C13.2123 17.6865 13.5061 17.6493 13.796 17.6005C16.5589 17.1356 18.9623 15.618 20.5814 13.4757Z" fill="#CD7F32"/>
</svg>
