<svg width="33" height="24" viewBox="0 0 33 24" fill="none" xmlns="http://www.w3.org/2000/svg">
<path d="M14 12C14 13.1046 13.1046 14 12 14C10.8954 14 10 13.1046 10 12C10 10.8954 10.8954 10 12 10C13.1046 10 14 10.8954 14 12Z" stroke="#666666" stroke-width="1.5"/>
<path d="M14 4C14 5.10457 13.1046 6 12 6C10.8954 6 10 5.10457 10 4C10 2.89543 10.8954 2 12 2C13.1046 2 14 2.89543 14 4Z" stroke="#666666" stroke-width="1.5"/>
<path d="M14 20C14 21.1046 13.1046 22 12 22C10.8954 22 10 21.1046 10 20C10 18.8954 10.8954 18 12 18C13.1046 18 14 18.8954 14 20Z" stroke="#666666" stroke-width="1.5"/>
<path d="M23 12C23 13.1046 22.1046 14 21 14C19.8954 14 19 13.1046 19 12C19 10.8954 19.8954 10 21 10C22.1046 10 23 10.8954 23 12Z" stroke="#666666" stroke-width="1.5"/>
<path d="M23 4C23 5.10457 22.1046 6 21 6C19.8954 6 19 5.10457 19 4C19 2.89543 19.8954 2 21 2C22.1046 2 23 2.89543 23 4Z" stroke="#666666" stroke-width="1.5"/>
<path d="M23 20C23 21.1046 22.1046 22 21 22C19.8954 22 19 21.1046 19 20C19 18.8954 19.8954 18 21 18C22.1046 18 23 18.8954 23 20Z" stroke="#666666" stroke-width="1.5"/>
</svg>
